<?xml version="1.0" encoding="UTF-8" standalone="no"?>
<!DOCTYPE svg PUBLIC "-//W3C//DTD SVG 1.1//EN" "http://www.w3.org/Graphics/SVG/1.1/DTD/svg11.dtd">
<svg width="100%" height="100%" viewBox="0 0 2608 1017" version="1.1" xmlns="http://www.w3.org/2000/svg" xmlns:xlink="http://www.w3.org/1999/xlink" xml:space="preserve" xmlns:serif="http://www.serif.com/" style="fill-rule:evenodd;clip-rule:evenodd;stroke-linejoin:round;stroke-miterlimit:2;">
    <g transform="matrix(1,0,0,1,-39.473711,-1493.414647)">
        <g transform="matrix(2.337501,0,0,2.38691,-651.186574,1260.831708)">
            <path d="M709.278,391.5C709.278,469.456 711.936,474.814 705.646,473.057C697.004,470.643 601.787,444.041 597.502,443.336C595.005,442.925 595.485,444.925 595.488,510.5C595.488,512.203 597.866,521.296 591.281,514.728C583.043,506.508 490.903,414.588 486.485,413.835C484.028,413.416 297.159,502.574 295.657,500.414C295.537,500.241 295.212,386.711 295.867,385.663C298.271,381.82 411.339,339.427 408.033,335.858C404.765,332.331 295.858,227.659 295.586,224.49C295.529,223.831 295.437,97.736 295.608,97.572C296.578,96.638 296.9,97.883 394.259,202.724C481.392,296.552 484.871,303.351 484.89,297.607C485.185,206.146 483.614,205.284 486.933,201.924C495.196,193.557 589.926,97.644 590.513,97.632C593.99,97.557 588.66,175.915 593.512,174.618C599.092,173.128 708.125,135.94 709.104,137.719C709.412,138.278 709.382,254.562 709.099,255.354C708.618,256.699 708.121,256.233 554.451,294.266C515.409,303.929 509.527,305.083 505.584,305.856C505.22,305.928 494.574,307.083 504.561,309.326C517.478,312.227 679.341,354.424 694.53,358.384C707.575,361.784 707.665,361.687 708.501,362.499C709.653,363.617 709.278,378.549 709.278,391.5ZM517.531,318.351C493.463,311.358 493.35,311.398 491.316,312.112C488.985,312.93 489.89,406.284 490.802,407.262C492.6,409.19 702.164,466.3 702.432,466.227C704.735,465.597 703.27,367.707 703.226,367.614C701.896,364.873 559.308,329.652 517.531,318.351ZM692.521,254.606C700.841,252.403 700.794,252.717 701.471,252.428C703.526,251.551 703.539,238.706 703.54,237.5C703.632,146.316 703.388,144.409 701.466,145.023C692.805,147.792 608.86,174.635 593.455,180.412C590.733,181.432 592.022,182.583 591.583,210.502C591.502,215.71 589.854,215.031 545.522,256.523C521.765,278.758 521.755,278.443 497.999,300.809C495.541,303.123 504.915,300.632 505.495,300.478C518.451,297.036 690.11,255.251 692.521,254.606ZM484.759,322.5C484.577,309.763 484.889,309.73 484.214,308.64C481.663,304.521 317.704,127.656 303.165,111.973C299.383,107.892 301.186,114.517 301.186,181.5C301.186,220.192 299.252,221.576 307.431,229.573C468.993,387.545 468.308,387.909 482.568,401.396C487.155,405.735 484.759,398.424 484.759,322.5ZM517.414,275.404C584.744,211.397 586.276,211.61 586.302,206.5C586.765,115.373 589.065,106.47 583.829,111.934C536.982,160.816 490.262,203.517 490.082,209.494C489.866,216.681 488.308,268.417 489.838,299.374C489.975,302.133 497.848,294.044 517.414,275.404ZM589.881,495.5C589.881,447.94 589.906,443.18 589.794,442.428C589.324,439.291 513.311,420.975 500.47,416.167C494.056,413.766 504.145,422.39 506.928,425.067C552.481,468.888 587.372,503.37 588.545,504.361C589.092,504.824 590.096,504.388 589.881,495.5ZM404.478,345.438C304.798,387.728 301.235,385.729 301.189,392.499C301.136,400.345 300.537,488.439 301.252,490.583C302.219,493.483 321.501,483.473 443.707,426.961C461.314,418.818 461.19,418.972 478.658,410.856C484.538,408.125 479.09,405.654 423.626,351.365C415.513,343.423 414.875,340.755 404.478,345.438Z" style="fill:rgb(67,37,74);"/>
        </g>
        <g transform="matrix(1,0,0,1,-854.408752,745.970784)">
            <text x="1971.1px" y="1468.687px" style="font-family:'Coolvetica-Regular', 'Coolvetica', sans-serif;font-size:625px;">VI</text>
            <g transform="matrix(625,0,0,625,3514.225225,1468.686714)">
            </g>
            <text x="2458.6px" y="1468.687px" style="font-family:'Coolvetica-Regular', 'Coolvetica', sans-serif;font-size:625px;fill:rgb(67,37,74);">App</text>
        </g>
        <g transform="matrix(1,0,0,1,-386.624559,754.077698)">
            <g>
                <g transform="matrix(1,0,0,1,-564.160803,-493.098715)">
                    <g transform="matrix(625,0,0,625,1350.286841,2248.919339)">
                        <path d="M0.331,-0.53L0.25,-0.553L0.287,-0.695L0.288,-0.694L0.331,-0.53ZM0.446,-0.35L0.325,-0.771L0.247,-0.791L0.145,-0.44L0.215,-0.419L0.235,-0.492L0.352,-0.458L0.374,-0.372L0.446,-0.35Z" style="fill:rgb(67,37,74);fill-rule:nonzero;"/>
                    </g>
                    <g transform="matrix(625,0,0,625,1752.161841,2248.919339)">
                        <path d="M-0.119,-0.536L-0.121,-0.652L-0.058,-0.636C-0.022,-0.626 -0.003,-0.6 -0.002,-0.564C-0.002,-0.528 -0.018,-0.508 -0.056,-0.519L-0.119,-0.536ZM-0.116,-0.326L-0.118,-0.469L-0.045,-0.448C0.02,-0.43 0.057,-0.479 0.056,-0.545C0.056,-0.609 0.021,-0.684 -0.048,-0.702L-0.19,-0.738L-0.182,-0.346L-0.116,-0.326Z" style="fill:rgb(67,37,74);fill-rule:nonzero;"/>
                    </g>
                    <g transform="matrix(625,0,0,625,2085.911841,2248.919339)">
                        <path d="M-0.397,-0.466L-0.398,-0.585L-0.334,-0.568C-0.297,-0.558 -0.279,-0.53 -0.279,-0.494C-0.279,-0.459 -0.295,-0.437 -0.333,-0.448L-0.397,-0.466ZM-0.395,-0.25L-0.396,-0.397L-0.323,-0.376C-0.256,-0.357 -0.221,-0.41 -0.221,-0.476C-0.221,-0.54 -0.253,-0.618 -0.324,-0.636L-0.465,-0.672L-0.462,-0.269L-0.395,-0.25Z" style="fill:rgb(67,37,74);fill-rule:nonzero;"/>
                    </g>
                </g>
            </g>
        </g>
    </g>
</svg>
